# xmcd
# Track frame offsets:
# 150
# 12969
# 27301
# 39531
# 54412
# 67496
# 85877
# 98468
# 118813
# 134262
# 150257
# 170064
# 192265
# 213993
# 229969
# 249655
# 267418
#
# Disc length: 3755 seconds
# Revision: 0
# Processed by: cddbd v1.5.1PL0 Copyright (c) Steve Scherf et al.
# Submitted via: VisiTrax 2.9.10.228 - For more info visit www.synapsa.com
#
DISCID=ee0ea911
DTITLE=Jimmy Little - The Definitive Collection Disc 2 1972-2001
DYEAR=2004
DGENRE=
TTITLE0=Baby Blue
TTITLE1=Australia Downunder
TTITLE2=Dance With Me (Just One More Time)
TTITLE3=Goodbye Isn't Really Good At All
TTITLE4=I Wouldn't Want To Live If You Didn't Love Me
TTITLE5=Mexicali Rose
TTITLE6=I Love You More And More Everyday
TTITLE7=Pearly Shells
TTITLE8=Beautiful Woman
TTITLE9=Is This Love
TTITLE10=Down Below
TTITLE11=Under The Milky Way
TTITLE12=The Way I Made You Feel
TTITLE13=Thankyou For The Dreamtime
TTITLE14=Surely God Is A Lover
TTITLE15=You Put A Spell On Me
TTITLE16=This Is The Truth
EXTD=Festival Records
EXTT0=
EXTT1=
EXTT2=
EXTT3=
EXTT4=
EXTT5=
EXTT6=
EXTT7=
EXTT8=
EXTT9=
EXTT10=
EXTT11=
EXTT12=
EXTT13=
EXTT14=
EXTT15=
EXTT16=
PLAYORDER=
